<svg xmlns="http://www.w3.org/2000/svg" viewBox="0 0 100 100">
  <g fill="#1a1a1a">
    <path d="M30 46 C 18 44 6 50 4 62 C 3 70 8 74 14 72 C 20 70 26 64 32 58 C 34 56 34 52 32 50 Z"/>
    <path d="M36 48 C 22 50 12 58 12 70 C 12 78 18 80 22 78 C 28 76 34 70 40 64 C 42 62 42 56 40 54 Z"/>
    <path d="M42 50 C 30 56 24 66 26 78 C 28 86 34 86 38 82 C 42 78 46 72 48 66 C 50 62 48 56 46 54 Z"/>
    <path d="M48 52 C 42 60 40 72 42 82 C 44 88 48 88 50 84 C 52 78 52 70 52 62 Z"/>
    <path d="M70 46 C 82 44 94 50 96 62 C 97 70 92 74 86 72 C 80 70 74 64 68 58 C 66 56 66 52 68 50 Z"/>
    <path d="M64 48 C 78 50 88 58 88 70 C 88 78 82 80 78 78 C 72 76 66 70 60 64 C 58 62 58 56 60 54 Z"/>
    <path d="M58 50 C 70 56 76 66 74 78 C 72 86 66 86 62 82 C 58 78 54 72 52 66 C 50 62 52 56 54 54 Z"/>
    <path d="M52 52 C 58 60 60 72 58 82 C 56 88 52 88 50 84 C 48 78 48 70 48 62 Z"/>
  </g>

  <g fill="#3d3d3d">
    <circle cx="16" cy="60" r="1.6"/>
    <circle cx="11" cy="68" r="1.3"/>
    <circle cx="22" cy="64" r="1.6"/>
    <circle cx="18" cy="72" r="1.3"/>
    <circle cx="30" cy="68" r="1.6"/>
    <circle cx="26" cy="76" r="1.3"/>
    <circle cx="40" cy="74" r="1.3"/>
    <circle cx="84" cy="60" r="1.6"/>
    <circle cx="89" cy="68" r="1.3"/>
    <circle cx="78" cy="64" r="1.6"/>
    <circle cx="82" cy="72" r="1.3"/>
    <circle cx="70" cy="68" r="1.6"/>
    <circle cx="74" cy="76" r="1.3"/>
    <circle cx="60" cy="74" r="1.3"/>
  </g>

  <circle cx="50" cy="32" r="22" fill="#1a1a1a"/>

  <path d="M60 13 C 67 14 72 20 70 30 C 66 26 62 20 60 15 Z" fill="#f5f5f5"/>

  <circle cx="42" cy="34" r="5.2" fill="#ffffff"/>
  <circle cx="58" cy="34" r="5.2" fill="#ffffff"/>
  <circle cx="42.5" cy="35" r="2.6" fill="#1a1a1a"/>
  <circle cx="58.5" cy="35" r="2.6" fill="#1a1a1a"/>
  <circle cx="43.5" cy="33.5" r="0.7" fill="#ffffff"/>
  <circle cx="59.5" cy="33.5" r="0.7" fill="#ffffff"/>
</svg>
