<svg xmlns="http://www.w3.org/2000/svg" viewBox="0 0 512 512">
  <!-- 8 tentacles, mirrored left/right from center -->
  <g fill="#111111">
    <!-- left side -->
    <path d="M210 280 C 160 270 100 280 60 320 C 30 350 40 380 80 380 C 130 380 180 360 220 320 C 240 300 240 280 220 275 Z"/>
    <path d="M220 300 C 170 310 110 330 80 380 C 60 420 90 440 130 430 C 180 415 220 380 240 340 C 250 320 245 300 230 295 Z"/>
    <path d="M235 320 C 190 340 140 380 130 430 C 125 470 160 480 190 460 C 225 435 250 400 255 360 C 258 335 250 318 240 315 Z"/>
    <path d="M245 340 C 215 370 190 410 195 450 C 200 480 225 480 240 460 C 255 435 260 400 258 360 C 257 345 252 335 245 340 Z"/>

    <!-- right side (mirror) -->
    <path d="M302 280 C 352 270 412 280 452 320 C 482 350 472 380 432 380 C 382 380 332 360 292 320 C 272 300 272 280 292 275 Z"/>
    <path d="M292 300 C 342 310 402 330 432 380 C 452 420 422 440 382 430 C 332 415 292 380 272 340 C 262 320 267 300 282 295 Z"/>
    <path d="M277 320 C 322 340 372 380 382 430 C 387 470 352 480 322 460 C 287 435 262 400 257 360 C 254 335 262 318 272 315 Z"/>
    <path d="M267 340 C 297 370 322 410 317 450 C 312 480 287 480 272 460 C 257 435 252 400 254 360 C 255 345 260 335 267 340 Z"/>
  </g>

  <!-- suckers (lighter dots) -->
  <g fill="#555555">
    <circle cx="90"  cy="345" r="6"/>
    <circle cx="120" cy="370" r="5"/>
    <circle cx="155" cy="380" r="6"/>
    <circle cx="100" cy="395" r="5"/>
    <circle cx="145" cy="410" r="5"/>
    <circle cx="180" cy="425" r="5"/>
    <circle cx="200" cy="450" r="5"/>
    <circle cx="230" cy="430" r="4"/>
    <circle cx="422" cy="345" r="6"/>
    <circle cx="392" cy="370" r="5"/>
    <circle cx="357" cy="380" r="6"/>
    <circle cx="412" cy="395" r="5"/>
    <circle cx="367" cy="410" r="5"/>
    <circle cx="332" cy="425" r="5"/>
    <circle cx="312" cy="450" r="5"/>
    <circle cx="282" cy="430" r="4"/>
  </g>

  <!-- head -->
  <circle cx="256" cy="170" r="120" fill="#111111"/>

  <!-- shine highlight on head -->
  <path d="M310 70 C 345 75 365 105 355 145 C 340 130 320 110 310 80 Z" fill="#ffffff" opacity="0.95"/>

  <!-- eyes -->
  <circle cx="216" cy="175" r="22" fill="#ffffff"/>
  <circle cx="296" cy="175" r="22" fill="#ffffff"/>
  <circle cx="218" cy="178" r="12" fill="#111111"/>
  <circle cx="298" cy="178" r="12" fill="#111111"/>
  <circle cx="222" cy="173" r="3.5" fill="#ffffff"/>
  <circle cx="302" cy="173" r="3.5" fill="#ffffff"/>
</svg>
